<svg width="18" height="22" viewBox="0 0 18 22" fill="none" xmlns="http://www.w3.org/2000/svg">
<path id="Vector" opacity="0.25" d="M18 17.6H0L2.25 15.4V8.8C2.25162 7.24144 2.81728 5.73372 3.84681 4.54385C4.87634 3.35399 6.30331 2.55876 7.875 2.299V1.1C7.875 0.808262 7.99353 0.528473 8.2045 0.322183C8.41548 0.115892 8.70163 0 9 0C9.29837 0 9.58452 0.115892 9.7955 0.322183C10.0065 0.528473 10.125 0.808262 10.125 1.1V2.299C10.6282 2.39005 11.119 2.5377 11.5875 2.739C11.3068 3.40667 11.1987 4.13172 11.2729 4.84996C11.347 5.56821 11.6012 6.2575 12.0127 6.85681C12.4243 7.45612 12.9807 7.94697 13.6326 8.28591C14.2844 8.62485 15.0117 8.80143 15.75 8.8V15.4L18 17.6ZM9 22C9.59674 22 10.169 21.7682 10.591 21.3556C11.0129 20.9431 11.25 20.3835 11.25 19.8H6.75C6.75 20.3835 6.98705 20.9431 7.40901 21.3556C7.83097 21.7682 8.40326 22 9 22ZM15.75 2.2C15.305 2.2 14.87 2.32903 14.5 2.57077C14.13 2.81251 13.8416 3.1561 13.6713 3.5581C13.501 3.96009 13.4564 4.40244 13.5432 4.8292C13.63 5.25596 13.8443 5.64796 14.159 5.95564C14.4737 6.26331 14.8746 6.47284 15.311 6.55773C15.7475 6.64262 16.1999 6.59905 16.611 6.43254C17.0222 6.26602 17.3736 5.98404 17.6208 5.62225C17.868 5.26047 18 4.83512 18 4.4C18 3.81652 17.7629 3.25695 17.341 2.84437C16.919 2.43179 16.3467 2.2 15.75 2.2Z" fill="#03011E"/>
</svg>
